<?xml version="1.0" encoding="UTF-8"?><svg id="Layer_1" xmlns="http://www.w3.org/2000/svg" viewBox="0 0 1130.34 1130.34"><defs><style>.cls-1{fill:#4d4d4d;}.cls-1,.cls-2{stroke-width:0px;}.cls-2{fill:#d4145a;}</style></defs><path class="cls-1" d="m171.12,582.41c-1.72,0-2.52-.63-2.52-2.41v-15.06c0-4.3-2-6.99-6.24-6.99s-6.24,2.63-7.1,3.95c.23.69.34,1.55.34,2.29v14.38h3.21c.46,0,.69.23.69.69v2.46c0,.46-.29.69-.69.69h-10.94c-.46,0-.74-.23-.74-.69v-2.46c0-.46.29-.69.74-.69h3.04v-13.63c0-4.3-2.06-6.99-6.3-6.99-5.84,0-7.62,4.98-7.62,4.93v15.7h2.81c.46,0,.69.23.69.69v2.46c0,.46-.29.69-.69.69h-10.71c-.46,0-.74-.23-.74-.69v-2.46c0-.46.29-.69.74-.69h3.15v-20.51h-3.15c-.46,0-.74-.23-.74-.69v-2.46c0-.46.29-.69.74-.69h5.61c1.26,0,1.83.34,1.83,1.72l-.11,2.86h.17c.69-1.15,3.09-4.98,9.28-4.98,4.12,0,7.1,1.78,8.54,4.75.86-1.26,3.32-4.75,9.22-4.75s9.68,3.95,9.68,9.97l.06,14.78h3.21c.46,0,.74.23.74.69v2.46c0,.46-.29.69-.74.69h-5.44Z"/><path class="cls-1" d="m224.85,582.41c-1.66,0-2.46-.63-2.46-2.41v-2.92h-.11c-1.03,1.43-4.24,5.79-11.17,5.79-5.33,0-9.39-2.98-9.39-7.96,0-6.53,6.3-9.11,15.35-9.11h4.81v-.69c0-5.44-3.04-7.16-7.45-7.16-6.07,0-8.42,2.63-8.65,2.63-.29.11-.63.11-.86-.17l-1.6-2c-.29-.34-.23-.63.11-.92.29-.34,3.44-3.67,11.17-3.67s12.03,3.09,12.03,11.46v13.29h3.21c.46,0,.69.23.69.69v2.46c0,.46-.23.69-.69.69h-4.98Zm-2.98-13.17h-4.53c-5.96,0-10.71.74-10.71,5.04,0,2.58,2.29,4.52,5.9,4.52,4.81,0,8.02-3.21,9.34-4.93v-4.64Z"/><path class="cls-1" d="m256.19,582.41c-.46,0-.74-.23-.74-.69v-2.46c0-.46.29-.69.74-.69h3.15v-20.51h-3.15c-.46,0-.74-.23-.74-.69v-2.46c0-.46.29-.69.74-.69h6.7c.46,0,.74.23.74.69v7.16h.17s1.89-7.96,12.26-7.96c.46,0,.74.29.74.74v3.04c0,.46-.29.74-.74.74h-1.2c-6.93,0-10.77,5.38-10.77,10.31v9.62h3.04c.46,0,.74.23.74.69v2.46c0,.46-.29.69-.74.69h-10.94Z"/><path class="cls-1" d="m325.38,575.76c.4.34.4.69.17,1.03-.69,1.26-4.64,6.01-12.2,6.01s-14.09-5.44-14.09-14.61,6.7-14.38,13.63-14.38c5.21,0,7.9,2.52,9.11,4.24h.06l-.06-3.15c0-.46.29-.74.74-.74h2.18c.46,0,.69.29.69.74v9.74c0,.46-.29.69-.69.69h-2.64c-.4,0-.69-.23-.69-.69v-.97c-.06-2.46-3.15-5.84-8.13-5.84-4.3,0-9.39,3.55-9.39,10.43s4.81,10.54,9.57,10.54,8.31-3.15,9.11-4.47c.23-.4.63-.46.97-.17l1.66,1.6Z"/><path class="cls-1" d="m351.73,582.41c-.46,0-.74-.23-.74-.69v-2.46c0-.46.29-.69.74-.69h3.15v-20.51h-3.15c-.46,0-.74-.23-.74-.69v-2.46c0-.46.29-.69.74-.69h7.22c.46,0,.69.23.69.69v23.66h3.04c.46,0,.74.23.74.69v2.46c0,.46-.29.69-.74.69h-10.94Zm5.44-31.22c-1.78,0-3.21-1.38-3.21-3.15s1.43-3.26,3.21-3.26,3.21,1.49,3.21,3.26-1.43,3.15-3.21,3.15Z"/><path class="cls-1" d="m413.43,582.41c-1.66,0-2.46-.63-2.46-2.41v-15.06c0-4.3-2.06-6.99-6.3-6.99-5.79,0-7.56,4.81-7.62,4.87v15.75h3.04c.46,0,.74.23.74.69v2.46c0,.46-.29.69-.74.69h-10.94c-.46,0-.74-.23-.74-.69v-2.46c0-.46.29-.69.74-.69h3.15v-20.51h-3.15c-.46,0-.74-.23-.74-.69v-2.46c0-.46.29-.69.74-.69h6.7c.46,0,.75.23.75.69l-.11,3.9h.17c.69-1.15,3.04-4.98,9.22-4.98s9.74,3.95,9.8,9.97v14.78h3.21c.46,0,.74.23.74.69v2.46c0,.46-.29.69-.74.69h-5.44Z"/><path class="cls-1" d="m537.93,582.41c-1.66,0-2.46-.63-2.46-2.41v-2.12h-.17c-.63,1.32-2.75,4.93-8.94,4.93s-9.91-3.95-9.97-9.97v-14.78h-3.26c-.46,0-.69-.23-.69-.69v-2.46c0-.46.29-.69.69-.69h5.5c1.66,0,2.46.63,2.46,2.41v15.07c0,4.3,2.06,6.99,6.3,6.99,5.73,0,7.62-4.75,7.62-4.87v-15.75h-3.09c-.46,0-.69-.23-.69-.69v-2.46c0-.46.29-.69.69-.69h7.1c.46,0,.69.23.69.69v23.66h3.21c.46,0,.74.23.74.69v2.46c0,.46-.29.69-.74.69h-4.98Z"/><path class="cls-1" d="m571.96,578.68h-.12s.12,2.81.12,2.98c0,.46-.34.74-.8.74h-1.95c-.46,0-.74-.29-.74-.74v-8.59c0-.46.29-.74.74-.74h2.23c.46,0,.8.29.8.74v1.15s1.6,4.87,8.08,4.87c4.07,0,6.19-1.66,6.19-4.47,0-5.67-17.24-2.69-17.24-12.66,0-5.1,4.12-8.13,9.57-8.13,4.3,0,6.76,1.49,8.13,3.32h.11s-.11-2.06-.11-2.12c0-.46.29-.74.74-.74h1.83c.46,0,.75.29.75.74v7.96c0,.46-.29.74-.75.74h-2.23c-.46,0-.8-.29-.8-.74v-.8c0-1.6-1.89-4.58-7.1-4.58-2.81,0-5.44,1.55-5.44,4.47,0,6.42,17.53,3.04,17.53,12.66,0,4.18-2.92,8.08-10.54,8.08-5.9,0-8.54-3.15-8.99-4.12Z"/><path class="cls-1" d="m642.82,575.76c.4.34.4.69.17,1.03-.69,1.26-4.64,6.01-12.2,6.01s-14.09-5.44-14.09-14.61,6.7-14.38,13.63-14.38c5.21,0,7.91,2.52,9.11,4.24h.06l-.06-3.15c0-.46.29-.74.75-.74h2.18c.46,0,.69.29.69.74v9.74c0,.46-.29.69-.69.69h-2.63c-.4,0-.69-.23-.69-.69v-.97c-.06-2.46-3.15-5.84-8.13-5.84-4.3,0-9.39,3.55-9.39,10.43s4.81,10.54,9.57,10.54,8.31-3.15,9.11-4.47c.23-.4.63-.46.97-.17l1.66,1.6Z"/><path class="cls-1" d="m669.17,582.41c-.46,0-.74-.23-.74-.69v-2.46c0-.46.29-.69.74-.69h3.15v-20.51h-3.15c-.46,0-.74-.23-.74-.69v-2.46c0-.46.29-.69.74-.69h7.22c.46,0,.69.23.69.69v23.66h3.04c.46,0,.74.23.74.69v2.46c0,.46-.29.69-.74.69h-10.94Zm5.44-31.22c-1.78,0-3.21-1.38-3.21-3.15s1.43-3.26,3.21-3.26,3.21,1.49,3.21,3.26-1.43,3.15-3.21,3.15Z"/><path class="cls-1" d="m730.86,582.41c-1.66,0-2.46-.63-2.46-2.41v-15.06c0-4.3-2.06-6.99-6.3-6.99-5.79,0-7.56,4.81-7.62,4.87v15.75h3.04c.46,0,.74.23.74.69v2.46c0,.46-.29.69-.74.69h-10.94c-.46,0-.74-.23-.74-.69v-2.46c0-.46.29-.69.74-.69h3.15v-20.51h-3.15c-.46,0-.74-.23-.74-.69v-2.46c0-.46.29-.69.74-.69h6.7c.46,0,.75.23.75.69l-.12,3.9h.17c.69-1.15,3.04-4.98,9.22-4.98s9.74,3.95,9.79,9.97v14.78h3.21c.46,0,.75.23.75.69v2.46c0,.46-.29.69-.75.69h-5.44Z"/><path class="cls-1" d="m760.53,568.2c0-9.05,6.36-14.38,14.32-14.38s14.21,5.44,14.21,14.38-6.07,14.61-14.26,14.61-14.26-5.61-14.26-14.61Zm23.77.06c0-6.53-4.53-10.43-9.45-10.43s-9.51,3.9-9.51,10.43,4.35,10.54,9.45,10.54,9.51-4.07,9.51-10.54Z"/><path class="cls-1" d="m840.21,582.41c-.8,0-1.26-.34-1.37-1.2l-4.87-19.19h-.12l-4.87,19.19c-.17.86-.57,1.2-1.43,1.2h-3.32c-.86,0-1.15-.4-1.38-1.2l-7.56-23.14h-3.21c-.4,0-.69-.23-.69-.69v-2.46c0-.46.23-.69.69-.69h10.71c.46,0,.69.23.69.69v2.46c0,.46-.29.69-.69.69h-2.63l5.79,19.3h.11l5.04-19.3h-2.23c-.4,0-.69-.23-.69-.69v-2.46c0-.46.23-.69.69-.69h10.08c.46,0,.69.23.69.69v2.46c0,.46-.29.69-.69.69h-2.23l5.04,19.3h.11l5.73-19.3h-2.58c-.46,0-.74-.23-.74-.69v-2.46c0-.46.29-.69.74-.69h10.65c.46,0,.69.23.69.69v2.46c0,.46-.23.69-.69.69h-3.15l-7.56,23.14c-.29.8-.57,1.2-1.38,1.2h-3.38Z"/><path class="cls-1" d="m880.65,582.41c-.46,0-.74-.23-.74-.69v-2.46c0-.46.29-.69.74-.69h3.15v-20.51h-3.15c-.46,0-.74-.23-.74-.69v-2.46c0-.46.29-.69.74-.69h7.22c.46,0,.69.23.69.69v23.66h3.04c.46,0,.74.23.74.69v2.46c0,.46-.29.69-.74.69h-10.94Z"/><path class="cls-1" d="m942.75,575.76c.4.34.4.69.17,1.03-.69,1.26-4.64,6.01-12.2,6.01s-14.09-5.44-14.09-14.61,6.7-14.38,13.63-14.38c5.21,0,7.91,2.52,9.11,4.24h.06l-.06-3.15c0-.46.29-.74.75-.74h2.18c.46,0,.69.29.69.74v9.74c0,.46-.29.69-.69.69h-2.63c-.4,0-.69-.23-.69-.69v-.97c-.06-2.46-3.15-5.84-8.13-5.84-4.3,0-9.39,3.55-9.39,10.43s4.81,10.54,9.57,10.54,8.31-3.15,9.11-4.47c.23-.4.63-.46.97-.17l1.66,1.6Z"/><path class="cls-1" d="m968.87,582.41c-.46,0-.74-.23-.74-.69v-2.35c0-1.09.34-1.43.86-1.95l18.56-19.36h-15.52v4.41c0,.46-.23.69-.69.69h-2.46c-.46,0-.74-.23-.74-.69v-7.56c0-.46.29-.69.74-.69h23.89c.46,0,.75.23.75.69v2c0,.8-.4,1.37-.92,1.83l-18.79,19.82h15.75v-4.53c0-.46.29-.69.75-.69h2.46c.46,0,.75.23.75.69v7.68c0,.46-.29.69-.75.69h-23.89Z"/><path class="cls-2" d="m907.38,582.81c-1.78,0-3.21-1.38-3.21-3.15s1.43-3.26,3.21-3.26,3.21,1.49,3.21,3.26-1.43,3.15-3.21,3.15Z"/><path class="cls-2" d="m484.88,592.38c.23.53.08.99-.46,1.22,0,0-6.46,3.65-17.26,3.65-15.21,0-26.92-11.48-26.92-27.07,0-16.5,13.54-30.04,29.51-30.04s24.26,9.51,24.26,20.69c0,14.37-9.2,20.91-16.81,20.91h-1.52c-2.21,0-3.27-.68-2.97-2.89l.23-1.9c0,.08-2.81,5.02-7.91,5.02-5.4,0-10.95-3.42-10.95-12.93s7.07-15.89,14.83-15.89c4.49,0,6.24,2.28,6.84,3.5l.3-1.9c.08-.53.46-.84.99-.84h2.28c.61,0,.84.38.76.91l-2.89,22.43h1.67c4.87,0,10.27-5.32,10.27-16.27,0-9.28-7.53-15.74-19.39-15.74-14.07,0-24.18,12.02-24.18,24.94s9.66,21.9,21.6,21.9c10.34,0,15.21-2.81,15.21-2.81.53-.3,1.06-.15,1.29.46l1.22,2.66Zm-9.96-30.11c-.15-1.22-1.37-5.1-5.93-5.1-5.02,0-10.34,4.33-10.34,11.71,0,6.24,3.8,8.59,7.45,8.59,3.88,0,7.53-4.49,7.83-7.38l.99-7.83Z"/></svg>